<svg version="1.1" viewBox="0.0 0.0 250.0 150.0" fill="none" stroke="none" stroke-linecap="square" stroke-miterlimit="10" xmlns:xlink="http://www.w3.org/1999/xlink" xmlns="http://www.w3.org/2000/svg"><clipPath id="p.0"><path d="m0 0l250.0 0l0 150.0l-250.0 0l0 -150.0z" clip-rule="nonzero"/></clipPath><g clip-path="url(#p.0)"><path fill="#000000" fill-opacity="0.0" d="m0 0l250.0 0l0 150.0l-250.0 0z" fill-rule="evenodd"/><path fill="#000000" d="m151.80052 10.853603l0 0c0 -5.9899306 4.8558044 -10.845729 10.845734 -10.845729l76.51326 0c2.8764648 0 5.635132 1.1426718 7.669098 3.1766407c2.033966 2.0339687 3.1766357 4.7926226 3.1766357 7.6690884l0 128.32428c0 5.989929 -4.8558044 10.845734 -10.845734 10.845734l-76.51326 0c-5.989929 0 -10.845734 -4.8558044 -10.845734 -10.845734z" fill-rule="evenodd"/><path fill="#efefef" d="m159.89502 14.710292l0 0c0 -2.9188776 2.366211 -5.285095 5.285095 -5.285095l71.44556 0c1.4016876 0 2.7459717 0.55682087 3.7371216 1.5479689c0.9911499 0.99114704 1.5479736 2.335432 1.5479736 3.7371264l0 120.579414c0 2.9188843 -2.3662262 5.285095 -5.285095 5.285095l-71.44556 0l0 0c-2.9188843 0 -5.285095 -2.366211 -5.285095 -5.285095z" fill-rule="evenodd"/><path fill="#ea9999" d="m66.35734 16.36666l10.153923 0l0 39.691277l-10.153923 0z" fill-rule="evenodd"/><path fill="#ea9999" d="m66.4735 50.492065l7.9530334 4.0507965l-21.377613 17.240387l-7.9530334 -4.0507965z" fill-rule="evenodd"/><path fill="#ea9999" d="m76.33522 50.492065l-7.9530334 4.0507965l21.37761 17.240387l7.9530334 -4.0507965z" fill-rule="evenodd"/><path fill="#f4b5c2" d="m130.10922 79.62285l0 0c7.0146637 24.453514 3.187027 46.450775 -8.549286 49.132248q-8.831802 2.017868 -19.807434 -3.43779q-8.86554 -17.58223 -14.144218 -35.98398l0 0c-7.0146637 -24.453514 -3.1870193 -46.45077 8.5492935 -49.132244l0 0c11.736313 -2.6814766 26.936981 14.96825 33.951645 39.421764z" fill-rule="evenodd"/><path fill="#f4b5c2" d="m12.704478 79.62177l0 0c-7.017088 24.467049 -3.1914034 46.475273 8.544908 49.156746q8.8318 2.017868 19.808174 -3.441925q8.867363 -17.592415 14.147858 -36.00434l0 0c7.017086 -24.467049 3.1914024 -46.475273 -8.544907 -49.15675l0 0c-11.736313 -2.6814728 -26.938944 14.979221 -33.95603 39.44627z" fill-rule="evenodd"/><path fill="#f4b5c2" d="m46.483704 129.22356l-15.611574 0l0 0c-3.2204075 0 -6.308914 -1.2792969 -8.586086 -3.5564728c-2.2771702 -2.2771683 -3.5564728 -5.365677 -3.5564728 -8.586082l0 -52.702858c0 -1.8310547E-4 1.487732E-4 -3.3569336E-4 3.3187866E-4 -3.3569336E-4l39.896362 3.3569336E-4l0 0c1.8310547E-4 0 3.3187866E-4 1.449585E-4 3.3187866E-4 3.2806396E-4l-3.3187866E-4 52.70253l0 0c0 6.7061462 -5.436409 12.142555 -12.142559 12.142555z" fill-rule="evenodd"/><path fill="#f4b5c2" d="m112.18864 129.22356l-15.611572 0l0 0c-3.2204056 0 -6.308914 -1.2792969 -8.58609 -3.5564728c-2.2771683 -2.2771683 -3.5564728 -5.365677 -3.5564728 -8.586082l0 -52.702858c0 -1.8310547E-4 1.5258789E-4 -3.3569336E-4 3.3569336E-4 -3.3569336E-4l39.896362 3.3569336E-4l0 0c1.8310547E-4 0 3.2806396E-4 1.449585E-4 3.2806396E-4 3.2806396E-4l-3.2806396E-4 52.70253l0 0c0 6.7061462 -5.436409 12.142555 -12.142563 12.142555z" fill-rule="evenodd"/><path fill="#ffffff" d="m205.15405 46.817383l0 0l0 0c0 -1.6327095 0.6485901 -3.1985474 1.8031006 -4.35305c1.1544952 -1.154499 2.720337 -1.8030891 4.3530426 -1.8030891l8.3250885 0c4.5776367E-5 0 9.1552734E-5 4.5776367E-5 9.1552734E-5 1.02996826E-4l-9.1552734E-5 12.31218l0 0c0 5.722046E-5 -4.5776367E-5 1.02996826E-4 -1.0681152E-4 1.02996826E-4l-8.324982 -1.02996826E-4l0 0c-3.3999481 0 -6.156143 -2.756199 -6.156143 -6.156143z" fill-rule="evenodd"/><path stroke="#700090" stroke-width="3.0" stroke-linejoin="round" stroke-linecap="butt" d="m205.15405 46.817383l0 0l0 0c0 -1.6327095 0.6485901 -3.1985474 1.8031006 -4.35305c1.1544952 -1.154499 2.720337 -1.8030891 4.3530426 -1.8030891l8.3250885 0c4.5776367E-5 0 9.1552734E-5 4.5776367E-5 9.1552734E-5 1.02996826E-4l-9.1552734E-5 12.31218l0 0c0 5.722046E-5 -4.5776367E-5 1.02996826E-4 -1.0681152E-4 1.02996826E-4l-8.324982 -1.02996826E-4l0 0c-3.3999481 0 -6.156143 -2.756199 -6.156143 -6.156143z" fill-rule="evenodd"/><path fill="#0076e4" d="m234.1165 46.817383l0 0l0 0c0 1.6327133 -0.6485901 3.1985512 -1.8030853 4.35305c-1.1545105 1.1545029 -2.720337 1.803093 -4.353058 1.803093l-8.325073 0c-6.1035156E-5 0 -1.0681152E-4 -4.5776367E-5 -1.0681152E-4 -1.02996826E-4l1.0681152E-4 -12.31218l0 0c0 -5.722046E-5 4.5776367E-5 -1.02996826E-4 9.1552734E-5 -1.02996826E-4l8.324982 1.02996826E-4l0 0c3.3999481 0 6.156143 2.756199 6.156143 6.1561394z" fill-rule="evenodd"/><path stroke="#700090" stroke-width="3.0" stroke-linejoin="round" stroke-linecap="butt" d="m234.1165 46.817383l0 0l0 0c0 1.6327133 -0.6485901 3.1985512 -1.8030853 4.35305c-1.1545105 1.1545029 -2.720337 1.803093 -4.353058 1.803093l-8.325073 0c-6.1035156E-5 0 -1.0681152E-4 -4.5776367E-5 -1.0681152E-4 -1.02996826E-4l1.0681152E-4 -12.31218l0 0c0 -5.722046E-5 4.5776367E-5 -1.02996826E-4 9.1552734E-5 -1.02996826E-4l8.324982 1.02996826E-4l0 0c3.3999481 0 6.156143 2.756199 6.156143 6.1561394z" fill-rule="evenodd"/><path fill="#000000" fill-opacity="0.0" d="m204.78479 99.87794l0 0c0 -8.201645 6.6487427 -14.850395 14.850388 -14.850395l0 0c3.938568 0 7.7158356 1.5645905 10.500824 4.349579c2.7849884 2.7849884 4.349579 6.562248 4.349579 10.500816l0 0c0 8.201645 -6.648758 14.850388 -14.850403 14.850388l0 0c-8.201645 0 -14.850388 -6.6487427 -14.850388 -14.850388z" fill-rule="evenodd"/><path stroke="#700090" stroke-width="3.0" stroke-linejoin="round" stroke-linecap="butt" d="m204.78479 99.87794l0 0c0 -8.201645 6.6487427 -14.850395 14.850388 -14.850395l0 0c3.938568 0 7.7158356 1.5645905 10.500824 4.349579c2.7849884 2.7849884 4.349579 6.562248 4.349579 10.500816l0 0c0 8.201645 -6.648758 14.850388 -14.850403 14.850388l0 0c-8.201645 0 -14.850388 -6.6487427 -14.850388 -14.850388z" fill-rule="evenodd"/><path fill="#700090" d="m217.47307 91.652306q0 -0.453125 0.15625 -0.78125q0.15625 -0.328125 0.4375 -0.53125q0.28125 -0.203125 0.640625 -0.296875q0.375 -0.109375 0.8125 -0.109375q0.40625 0 0.78125 0.109375q0.375 0.09375 0.65625 0.296875q0.28125 0.203125 0.453125 0.53125q0.171875 0.328125 0.171875 0.78125q0 0.453125 -0.171875 0.78125q-0.171875 0.328125 -0.453125 0.546875q-0.28125 0.203125 -0.65625 0.3125q-0.375 0.09375 -0.78125 0.09375q-0.4375 0 -0.8125 -0.09375q-0.359375 -0.109375 -0.640625 -0.3125q-0.28125 -0.21875 -0.4375 -0.546875q-0.15625 -0.328125 -0.15625 -0.78125zm-1.375 15.484375q0.28125 0 0.578125 -0.046875q0.296875 -0.0625 0.546875 -0.21875q0.25 -0.171875 0.421875 -0.46875q0.171875 -0.3125 0.171875 -0.828125l0 -7.28125q0 -0.484375 -0.171875 -0.765625q-0.171875 -0.296875 -0.4375 -0.453125q-0.25 -0.15625 -0.546875 -0.203125q-0.296875 -0.046875 -0.5625 -0.046875l-0.28125 0l0 -1.28125l5.640625 0l0 10.03125q0 0.515625 0.171875 0.828125q0.171875 0.296875 0.421875 0.46875q0.25 0.15625 0.546875 0.21875q0.3125 0.046875 0.578125 0.046875l0.28125 0l0 1.28125l-7.640625 0l0 -1.28125l0.28125 0z" fill-rule="nonzero"/><path fill="#000000" fill-opacity="0.0" d="m168.73009 99.95259l0 0c-0.03314209 -7.0227356 4.496994 -13.120689 10.881256 -14.647118c6.384262 -1.5264359 12.896133 1.9314499 15.641373 8.30574c2.7452393 6.3742905 0.98143005 13.941185 -4.2366333 18.175476c-5.2180634 4.2342987 -12.479233 3.9909134 -17.441147 -0.58461l9.058334 -11.325119z" fill-rule="evenodd"/><path fill="#000000" fill-opacity="0.0" d="m168.73009 99.95259l0 0c-0.03314209 -7.0227356 4.496994 -13.120689 10.881256 -14.647118c6.384262 -1.5264359 12.896133 1.9314499 15.641373 8.30574c2.7452393 6.3742905 0.98143005 13.941185 -4.2366333 18.175476c-5.2180634 4.2342987 -12.479233 3.9909134 -17.441147 -0.58461" fill-rule="evenodd"/><path stroke="#700090" stroke-width="3.0" stroke-linejoin="round" stroke-linecap="butt" d="m168.73009 99.95259l0 0c-0.03314209 -7.0227356 4.496994 -13.120689 10.881256 -14.647118c6.384262 -1.5264359 12.896133 1.9314499 15.641373 8.30574c2.7452393 6.3742905 0.98143005 13.941185 -4.2366333 18.175476c-5.2180634 4.2342987 -12.479233 3.9909134 -17.441147 -0.58461" fill-rule="evenodd"/><path fill="#0b5394" d="m173.057 99.07007l-4.412384 4.8102493l-4.4123993 -4.8102493z" fill-rule="evenodd"/><path stroke="#700090" stroke-width="1.0" stroke-linejoin="round" stroke-linecap="butt" d="m173.057 99.07007l-4.412384 4.8102493l-4.4123993 -4.8102493z" fill-rule="evenodd"/><path fill="#000000" fill-opacity="0.0" d="m182.37581 91.38126l0.16574097 8.6299515l5.9926147 3.5166855" fill-rule="evenodd"/><path stroke="#700090" stroke-width="3.0" stroke-linejoin="round" stroke-linecap="butt" d="m182.37581 91.38126l0.16574097 8.6299515l5.9926147 3.5166855" fill-rule="evenodd"/><path fill="#cfe2f3" d="m182.18512 28.065258l0 0l0 0c1.3377533 0 2.6207275 0.53141975 3.5666504 1.477354c0.9459381 0.9459362 1.477356 2.228899 1.477356 3.5666523l0 19.536251c0 4.5776367E-5 -3.0517578E-5 8.392334E-5 -7.6293945E-5 8.392334E-5l-10.087936 -8.392334E-5l0 0c-4.5776367E-5 0 -7.6293945E-5 -3.8146973E-5 -7.6293945E-5 -8.392334E-5l7.6293945E-5 -19.536167l0 0c0 -2.7857285 2.2582855 -5.0440063 5.0440063 -5.0440063z" fill-rule="evenodd"/><path stroke="#700090" stroke-width="3.0" stroke-linejoin="round" stroke-linecap="butt" d="m182.18512 28.065258l0 0l0 0c1.3377533 0 2.6207275 0.53141975 3.5666504 1.477354c0.9459381 0.9459362 1.477356 2.228899 1.477356 3.5666523l0 19.536251c0 4.5776367E-5 -3.0517578E-5 8.392334E-5 -7.6293945E-5 8.392334E-5l-10.087936 -8.392334E-5l0 0c-4.5776367E-5 0 -7.6293945E-5 -3.8146973E-5 -7.6293945E-5 -8.392334E-5l7.6293945E-5 -19.536167l0 0c0 -2.7857285 2.2582855 -5.0440063 5.0440063 -5.0440063z" fill-rule="evenodd"/><path fill="#ffffff" d="m187.22906 48.17175l0 0c2.5814362 2.2228737 3.5186462 5.8905296 2.3350525 9.138039c-1.1835785 3.247509 -4.22818 5.36211 -7.585678 5.2685776c-3.3574982 -0.09353256 -6.2910004 -2.3746758 -7.3088684 -5.6835136c-1.0178833 -3.308838 0.103271484 -6.9191513 2.7933655 -8.995167l4.721405 6.531719z" fill-rule="evenodd"/><path fill="#000000" fill-opacity="0.0" d="m187.22906 48.17175l0 0c2.5814362 2.2228737 3.5186462 5.8905296 2.3350525 9.138039c-1.1835785 3.247509 -4.22818 5.36211 -7.585678 5.2685776c-3.3574982 -0.09353256 -6.2910004 -2.3746758 -7.3088684 -5.6835136c-1.0178833 -3.308838 0.103271484 -6.9191513 2.7933655 -8.995167" fill-rule="evenodd"/><path stroke="#700090" stroke-width="3.0" stroke-linejoin="round" stroke-linecap="butt" d="m187.22906 48.17175l0 0c2.5814362 2.2228737 3.5186462 5.8905296 2.3350525 9.138039c-1.1835785 3.247509 -4.22818 5.36211 -7.585678 5.2685776c-3.3574982 -0.09353256 -6.2910004 -2.3746758 -7.3088684 -5.6835136c-1.0178833 -3.308838 0.103271484 -6.9191513 2.7933655 -8.995167" fill-rule="evenodd"/><path fill="#cfe2f3" d="m175.56017 54.432983l0 0c0 -3.7842674 2.9639893 -6.8520203 6.62027 -6.8520203l0 0c1.7557983 0 3.439682 0.72190857 4.6812286 2.0069122c1.2415314 1.2849998 1.9390259 3.0278397 1.9390259 4.845108l0 0c0 3.7842636 -2.9639893 6.8520164 -6.6202545 6.8520164l0 0c-3.6562805 0 -6.62027 -3.0677528 -6.62027 -6.8520164z" fill-rule="evenodd"/><path fill="#0076e4" d="m177.09222 54.42916l0 0c0 -2.8231812 2.2818146 -5.11182 5.0965576 -5.11182l0 0c1.3516846 0 2.6480103 0.5385628 3.6038055 1.4972153c0.95578 0.9586525 1.4927368 2.2588654 1.4927368 3.614605l0 0c0 2.823185 -2.2817993 5.111824 -5.0965424 5.111824l0 0c-2.814743 0 -5.0965576 -2.288639 -5.0965576 -5.111824z" fill-rule="evenodd"/><path fill="#0076e4" d="m179.81651 35.682995l4.72876 0l0 14.574135l-4.72876 0z" fill-rule="evenodd"/></g></svg>