<svg version="1.1" viewBox="0.0 0.0 250.0 150.0" fill="none" stroke="none" stroke-linecap="square" stroke-miterlimit="10" xmlns:xlink="http://www.w3.org/1999/xlink" xmlns="http://www.w3.org/2000/svg"><clipPath id="p.0"><path d="m0 0l250.0 0l0 150.0l-250.0 0l0 -150.0z" clip-rule="nonzero"/></clipPath><g clip-path="url(#p.0)"><path fill="#000000" fill-opacity="0.0" d="m0 0l250.0 0l0 150.0l-250.0 0z" fill-rule="evenodd"/><path fill="#ea9999" d="m120.272606 16.061718l9.497429 0l0 37.012535l-9.497429 0z" fill-rule="evenodd"/><path fill="#ea9999" d="m120.38126 47.88402l7.4388275 3.7774124l-19.995438 16.07684l-7.4388275 -3.7774086z" fill-rule="evenodd"/><path fill="#ea9999" d="m129.60536 47.88402l-7.4388275 3.7774124l19.995438 16.07684l7.4388275 -3.7774086z" fill-rule="evenodd"/><path fill="#f4b5c2" d="m179.9026 75.04879l0 0c6.561142 22.803162 2.980957 43.315834 -7.9965363 45.816338q-8.260773 1.8816757 -18.52678 -3.20578q-8.292328 -16.395615 -13.229721 -33.555435l0 0c-6.5611267 -22.803162 -2.980957 -43.315838 7.9965363 -45.81634l0 0c10.977509 -2.5005035 25.195374 13.958054 31.7565 36.76122z" fill-rule="evenodd"/><path fill="#f4b5c2" d="m70.088684 75.04778l0 0c-6.5633965 22.81578 -2.9850616 43.338684 7.9924316 45.839188q8.26078 1.8816757 18.527473 -3.2096329q8.2940445 -16.405113 13.233124 -33.574432l0 0c6.5634003 -22.81578 2.9850693 -43.338684 -7.9924316 -45.839188l0 0c-10.977493 -2.5005035 -25.197205 13.968285 -31.760597 36.784065z" fill-rule="evenodd"/><path fill="#f4b5c2" d="m101.68391 121.30197l-14.602203 0l0 0c-3.0121918 0 -5.9010086 -1.1965866 -8.030952 -3.3265305c-2.1299438 -2.1299362 -3.3265305 -5.018753 -3.3265305 -8.030945l0 -49.11156c0 -1.7166138E-4 1.373291E-4 -3.1280518E-4 3.1280518E-4 -3.1280518E-4l37.316856 3.1280518E-4l0 0c1.6784668E-4 0 3.1280518E-4 1.373291E-4 3.1280518E-4 3.0899048E-4l-3.1280518E-4 49.11125l0 0c0 6.27256 -5.084915 11.357475 -11.357483 11.357475z" fill-rule="evenodd"/><path fill="#f4b5c2" d="m163.14067 121.30197l-14.602203 0l0 0c-3.0121918 0 -5.901001 -1.1965866 -8.030945 -3.3265305c-2.1299438 -2.1299362 -3.326538 -5.018753 -3.326538 -8.030945l0 -49.11156c0 -1.7166138E-4 1.5258789E-4 -3.1280518E-4 3.2043457E-4 -3.1280518E-4l37.31685 3.1280518E-4l0 0c1.6784668E-4 0 3.2043457E-4 1.373291E-4 3.2043457E-4 3.0899048E-4l-3.2043457E-4 49.11125l0 0c0 6.27256 -5.084915 11.357475 -11.357483 11.357475z" fill-rule="evenodd"/><path fill="#cfe2f3" d="m45.615078 15.38514l0 0c0 -4.7402315 3.8427162 -8.582949 8.582951 -8.582949l0 0l0 0c2.2763367 0 4.459446 0.90427256 6.0690613 2.513887c1.6096115 1.6096153 2.5138855 3.7927217 2.5138855 6.0690613l0 28.513428c0 4.7402306 -3.8427162 8.582947 -8.582947 8.582947l0 0l0 0c-4.7402344 0 -8.582951 -3.8427162 -8.582951 -8.582947z" fill-rule="evenodd"/><path fill="#cfe2f3" d="m40.682514 55.079346l0 0c0 -7.515293 6.049572 -13.607643 13.512096 -13.607643l0 0c3.5836296 0 7.020485 1.4336586 9.554493 3.9855843c2.534008 2.5519295 3.9575996 6.013088 3.9575996 9.622059l0 0c0 7.515297 -6.049568 13.607643 -13.512093 13.607643l0 0c-7.4625244 0 -13.512096 -6.092346 -13.512096 -13.607643z" fill-rule="evenodd"/><path fill="#e06666" d="m45.415092 55.080322l0 0c0 -4.7999954 3.9326782 -8.691162 8.783886 -8.691162l0 0c2.3296318 0 4.5638466 0.9156723 6.2111435 2.5455818c1.6473007 1.6299095 2.5727425 3.8405418 2.5727425 6.1455803l0 0c0 4.799999 -3.932682 8.691166 -8.783886 8.691166l0 0c-4.8512077 0 -8.783886 -3.8911667 -8.783886 -8.691166z" fill-rule="evenodd"/><path fill="#e06666" d="m49.263996 23.40472l9.866497 0l0 24.75893l-9.866497 0z" fill-rule="evenodd"/><path fill="#ffffff" d="m173.64561 37.745552l0 0l0 0c0 -2.554184 1.0146484 -5.0037575 2.8207245 -6.8098392c1.8060913 -1.8060818 4.255661 -2.8207264 6.809845 -2.8207264l17.06781 0c9.1552734E-5 0 1.5258789E-4 7.05719E-5 1.5258789E-4 1.6021729E-4l-1.5258789E-4 19.260971l0 0c0 9.1552734E-5 -7.6293945E-5 1.6403198E-4 -1.6784668E-4 1.6403198E-4l-17.067642 -1.6403198E-4l0 0c-5.318817 0 -9.630569 -4.3117485 -9.630569 -9.630566z" fill-rule="evenodd"/><path stroke="#b7b7b7" stroke-width="3.0" stroke-linejoin="round" stroke-linecap="butt" d="m173.64561 37.745552l0 0l0 0c0 -2.554184 1.0146484 -5.0037575 2.8207245 -6.8098392c1.8060913 -1.8060818 4.255661 -2.8207264 6.809845 -2.8207264l17.06781 0c9.1552734E-5 0 1.5258789E-4 7.05719E-5 1.5258789E-4 1.6021729E-4l-1.5258789E-4 19.260971l0 0c0 9.1552734E-5 -7.6293945E-5 1.6403198E-4 -1.6784668E-4 1.6403198E-4l-17.067642 -1.6403198E-4l0 0c-5.318817 0 -9.630569 -4.3117485 -9.630569 -9.630566z" fill-rule="evenodd"/><path fill="#e06666" d="m227.04236 37.745552l0 0l0 0c0 2.554184 -1.0146484 5.0037575 -2.8207245 6.809841c-1.806076 1.8060799 -4.255661 2.8207245 -6.809845 2.8207245l-17.067795 0c-9.1552734E-5 0 -1.6784668E-4 -6.866455E-5 -1.6784668E-4 -1.6021729E-4l1.6784668E-4 -19.260971l0 0c0 -8.9645386E-5 6.1035156E-5 -1.6212463E-4 1.5258789E-4 -1.6212463E-4l17.067642 1.6212463E-4l0 0c5.318817 0 9.630569 4.3117523 9.630569 9.630566z" fill-rule="evenodd"/><path stroke="#b7b7b7" stroke-width="3.0" stroke-linejoin="round" stroke-linecap="butt" d="m227.04236 37.745552l0 0l0 0c0 2.554184 -1.0146484 5.0037575 -2.8207245 6.809841c-1.806076 1.8060799 -4.255661 2.8207245 -6.809845 2.8207245l-17.067795 0c-9.1552734E-5 0 -1.6784668E-4 -6.866455E-5 -1.6784668E-4 -1.6021729E-4l1.6784668E-4 -19.260971l0 0c0 -8.9645386E-5 6.1035156E-5 -1.6212463E-4 1.5258789E-4 -1.6212463E-4l17.067642 1.6212463E-4l0 0c5.318817 0 9.630569 4.3117523 9.630569 9.630566z" fill-rule="evenodd"/><path fill="#ffffff" d="m189.06596 115.10706l0 0c0 -12.524254 10.152924 -22.677162 22.67717 -22.677162l0 0c6.0143585 0 11.782379 2.3891907 16.035187 6.641983c4.2527924 4.2528 6.641983 10.020821 6.641983 16.03518l0 0c0 12.524254 -10.152908 22.677162 -22.67717 22.677162l0 0c-12.524246 0 -22.67717 -10.152908 -22.67717 -22.677162z" fill-rule="evenodd"/><path stroke="#0b5394" stroke-width="3.0" stroke-linejoin="round" stroke-linecap="butt" d="m189.06596 115.10706l0 0c0 -12.524254 10.152924 -22.677162 22.67717 -22.677162l0 0c6.0143585 0 11.782379 2.3891907 16.035187 6.641983c4.2527924 4.2528 6.641983 10.020821 6.641983 16.03518l0 0c0 12.524254 -10.152908 22.677162 -22.67717 22.677162l0 0c-12.524246 0 -22.67717 -10.152908 -22.67717 -22.677162z" fill-rule="evenodd"/><path fill="#0b5394" d="m208.26678 102.24269q0 -0.75 0.25 -1.265625q0.25 -0.53125 0.6875 -0.859375q0.453125 -0.328125 1.046875 -0.484375q0.59375 -0.171875 1.296875 -0.171875q0.65625 0 1.25 0.171875q0.609375 0.15625 1.0625 0.484375q0.453125 0.328125 0.71875 0.859375q0.28125 0.515625 0.28125 1.265625q0 0.703125 -0.28125 1.234375q-0.265625 0.53125 -0.71875 0.875q-0.453125 0.34375 -1.0625 0.515625q-0.59375 0.15625 -1.25 0.15625q-0.703125 0 -1.296875 -0.15625q-0.59375 -0.171875 -1.046875 -0.515625q-0.4375 -0.34375 -0.6875 -0.875q-0.25 -0.53125 -0.25 -1.234375zm-2.21875 24.921875q0.4375 0 0.921875 -0.078125q0.484375 -0.09375 0.890625 -0.34375q0.40625 -0.265625 0.671875 -0.75q0.28125 -0.5 0.28125 -1.328125l0 -11.75q0 -0.765625 -0.28125 -1.21875q-0.265625 -0.46875 -0.6875 -0.71875q-0.421875 -0.265625 -0.90625 -0.34375q-0.46875 -0.078125 -0.890625 -0.078125l-0.453125 0l0 -2.046875l9.078125 0l0 16.15625q0 0.828125 0.265625 1.328125q0.28125 0.484375 0.6875 0.75q0.40625 0.25 0.890625 0.34375q0.5 0.078125 0.921875 0.078125l0.453125 0l0 2.0625l-12.296875 0l0 -2.0625l0.453125 0z" fill-rule="nonzero"/><path fill="#000000" fill-opacity="0.0" d="m15.475401 115.23097l0 0c-0.0576334 -10.594566 7.2282677 -19.817116 17.548525 -22.21305c10.320255 -2.395935 20.924126 2.673355 25.540047 12.209679c4.615921 9.536324 2.0135727 20.997887 -6.267906 27.605865c-8.281479 6.607971 -20.034763 6.601059 -28.308477 -0.01663208l14.16464 -17.70922z" fill-rule="evenodd"/><path fill="#000000" fill-opacity="0.0" d="m15.475401 115.23097l0 0c-0.0576334 -10.594566 7.2282677 -19.817116 17.548525 -22.21305c10.320255 -2.395935 20.924126 2.673355 25.540047 12.209679c4.615921 9.536324 2.0135727 20.997887 -6.267906 27.605865c-8.281479 6.607971 -20.034763 6.601059 -28.308477 -0.01663208" fill-rule="evenodd"/><path stroke="#434343" stroke-width="4.0" stroke-linejoin="round" stroke-linecap="butt" d="m15.475401 115.23097l0 0c-0.0576334 -10.594566 7.2282677 -19.817116 17.548525 -22.21305c10.320255 -2.395935 20.924126 2.673355 25.540047 12.209679c4.615921 9.536324 2.0135727 20.997887 -6.267906 27.605865c-8.281479 6.607971 -20.034763 6.601059 -28.308477 -0.01663208" fill-rule="evenodd"/><path fill="#434343" d="m22.532808 113.88189l-7.19685 7.3070908l-7.196851 -7.3070908z" fill-rule="evenodd"/><path stroke="#434343" stroke-width="1.0" stroke-linejoin="round" stroke-linecap="butt" d="m22.532808 113.88189l-7.19685 7.3070908l-7.196851 -7.3070908z" fill-rule="evenodd"/><path fill="#000000" fill-opacity="0.0" d="m37.732285 102.2021l0.27033997 13.109451l9.774277 5.3420715" fill-rule="evenodd"/><path stroke="#434343" stroke-width="3.0" stroke-linejoin="round" stroke-linecap="butt" d="m37.732285 102.2021l0.27033997 13.109451l9.774277 5.3420715" fill-rule="evenodd"/></g></svg>