<svg version="1.1" viewBox="0.0 0.0 250.0 150.0" fill="none" stroke="none" stroke-linecap="square" stroke-miterlimit="10" xmlns:xlink="http://www.w3.org/1999/xlink" xmlns="http://www.w3.org/2000/svg"><clipPath id="p.0"><path d="m0 0l250.0 0l0 150.0l-250.0 0l0 -150.0z" clip-rule="nonzero"/></clipPath><g clip-path="url(#p.0)"><path fill="#000000" fill-opacity="0.0" d="m0 0l250.0 0l0 150.0l-250.0 0z" fill-rule="evenodd"/><path fill="#cfe2f3" d="m86.01558 28.501833l0 0c-0.54369354 2.9856834 -2.0375519 5.7459164 -3.8476791 7.1094265c-1.8101349 1.3635101 -3.619072 1.0911713 -4.659218 -0.70145416l0 0c-0.9532776 1.6057091 -2.1895065 2.5961418 -3.3347397 2.6717033c-1.1452332 0.07556152 -2.064972 -0.77261734 -2.4809952 -2.287983l0 0c-0.83652496 1.461525 -1.9565506 2.3293762 -2.9626465 2.2956047c-1.0060959 -0.03377533 -1.755867 -0.96439743 -1.9832611 -2.4616356l0 0c-1.2092667 1.4832535 -2.6315613 1.9210396 -3.651455 1.1239243c-1.0198975 -0.7971153 -1.4542046 -2.6859589 -1.1149979 -4.8492203l0 0c-0.83444214 -0.6621094 -1.3213768 -2.0110817 -1.3349991 -3.6983871c-0.013622284 -1.6873074 0.44740295 -3.5474243 1.2639656 -5.099758l0 0c-0.3694229 -2.3847637 0.17272949 -5.35091 1.4241333 -7.7915287c1.2514038 -2.4406176 3.0240479 -3.9890318 4.656418 -4.067401c0.6378555 -2.40034 1.9498291 -4.454268 3.4302216 -5.3701086c1.4803925 -0.9158406 2.8980484 -0.5505824 3.7065277 0.95498705c1.2368469 -2.7781212 3.156868 -4.6157136 4.930542 -4.718869c1.773674 -0.10315561 3.0830383 1.5466181 3.3623962 4.236558c1.4636307 -0.9984307 2.9266663 -1.0730939 4.0590744 -0.20714617c1.1324081 0.8659477 1.8387985 2.5995626 1.9598236 4.8097754l0 0c1.2308273 -0.0056562424 2.076912 1.3067312 2.118332 3.2858305c0.041427612 1.9790993 -0.73062897 4.2036057 -1.9329834 5.5695057l0 0c0.75496674 1.3089733 0.71849823 3.5926094 -0.090400696 5.660082c-0.8088989 2.0674725 -2.2069244 3.450285 -3.465065 3.427353z" fill-rule="evenodd"/><path fill="#000000" fill-opacity="0.0" d="m89.62369 19.305805l0 0c-0.35627747 -0.6177082 -0.8625717 -0.96839905 -1.4509201 -1.0049839m1.2658768 -7.8504868c-0.2574234 0.0011835098 -0.52492523 0.060461044 -0.79558563 0.17630482m-5.2229996 -4.77873c0.051475525 0.495646 0.06676483 1.0171661 0.04560852 1.5556736m-8.338867 -1.0733366l0 0c-0.22549438 0.5064931 -0.42380524 1.0346899 -0.5916214 1.575779m-6.544861 2.8391852c-0.67910004 2.5555334 -0.47821808 5.063629 0.5163574 6.446987m-6.596813 5.4116764c0.43574905 -0.8283882 0.9555855 -1.535984 1.5187492 -2.0673084m-1.4479752 10.865644l0 0c0.056293488 -0.35899353 0.13304138 -0.7193737 0.22917938 -1.0761433m4.5372086 4.8013134l0 0c0.301651 -0.36999893 0.5815811 -0.7951546 0.8310623 -1.2622337m4.1148453 1.4284515l0 0c0.20090485 -0.35100937 0.38118744 -0.72904587 0.5366821 -1.1254005m5.2791443 0.7416649l0 0c-0.2201004 -0.37931824 -0.40065002 -0.8186188 -0.5376892 -1.3082504m9.04451 -5.099779l0 0c0.07493591 -0.41150475 0.13069153 -0.82167053 0.16674042 -1.226656" fill-rule="evenodd"/><path fill="#b7b7b7" d="m56.769028 73.40796l7.2183228 -28.873291l19.488396 0l7.2183228 28.873291z" fill-rule="evenodd"/><path fill="#b7b7b7" d="m87.88502 30.02561l-6.325424 25.301683l-15.657715 0l-6.3254204 -25.301683z" fill-rule="evenodd"/><path fill="#ffffff" d="m14.155297 72.45048l2.9152212 -50.781265l5.8304405 0l2.9152203 50.781265z" fill-rule="evenodd"/><path stroke="#b7b7b7" stroke-width="2.0" stroke-linejoin="round" stroke-linecap="butt" d="m14.155297 72.45048l2.9152212 -50.781265l5.8304405 0l2.9152203 50.781265z" fill-rule="evenodd"/><path fill="#ffffff" d="m19.770466 22.806404l0 0c-0.3531685 -2.0497608 5.2044086 -4.733116 12.413197 -5.9934425l0 0c7.208786 -1.2603254 13.338963 -0.6203613 13.692131 1.4293995l0 0c0.3531685 2.0497608 -5.2044067 4.733116 -12.413197 5.9934425l0 0c-7.208786 1.2603264 -13.338963 0.6203613 -13.692131 -1.4293995z" fill-rule="evenodd"/><path stroke="#b7b7b7" stroke-width="2.0" stroke-linejoin="round" stroke-linecap="butt" d="m19.770466 22.806404l0 0c-0.3531685 -2.0497608 5.2044086 -4.733116 12.413197 -5.9934425l0 0c7.208786 -1.2603254 13.338963 -0.6203613 13.692131 1.4293995l0 0c0.3531685 2.0497608 -5.2044067 4.733116 -12.413197 5.9934425l0 0c-7.208786 1.2603264 -13.338963 0.6203613 -13.692131 -1.4293995z" fill-rule="evenodd"/><path fill="#ffffff" d="m19.822603 22.706936l0 0c-1.5857944 1.3365002 -6.6662073 -2.1215496 -11.347418 -7.7237673l0 0c-4.6812105 -5.6022177 -7.1905413 -11.2271595 -5.6047463 -12.56366l0 0c1.5857944 -1.3364996 6.666207 2.121549 11.347418 7.7237673l0 0c4.6812105 5.6022177 7.1905413 11.2271595 5.604747 12.56366z" fill-rule="evenodd"/><path stroke="#b7b7b7" stroke-width="2.0" stroke-linejoin="round" stroke-linecap="butt" d="m19.822603 22.706936l0 0c-1.5857944 1.3365002 -6.6662073 -2.1215496 -11.347418 -7.7237673l0 0c-4.6812105 -5.6022177 -7.1905413 -11.2271595 -5.6047463 -12.56366l0 0c1.5857944 -1.3364996 6.666207 2.121549 11.347418 7.7237673l0 0c4.6812105 5.6022177 7.1905413 11.2271595 5.604747 12.56366z" fill-rule="evenodd"/><path fill="#ffffff" d="m19.15754 22.960232l0 0c1.9528122 0.71326256 1.5037155 6.8546658 -1.0030861 13.717209l0 0c-2.5068026 6.862545 -6.122035 11.847523 -8.074848 11.134262l0 0c-1.9528122 -0.71326065 -1.5037155 -6.854664 1.003087 -13.717209l0 0c2.5068026 -6.862545 6.122035 -11.847523 8.074847 -11.134262z" fill-rule="evenodd"/><path stroke="#b7b7b7" stroke-width="2.0" stroke-linejoin="round" stroke-linecap="butt" d="m19.15754 22.960232l0 0c1.9528122 0.71326256 1.5037155 6.8546658 -1.0030861 13.717209l0 0c-2.5068026 6.862545 -6.122035 11.847523 -8.074848 11.134262l0 0c-1.9528122 -0.71326065 -1.5037155 -6.854664 1.003087 -13.717209l0 0c2.5068026 -6.862545 6.122035 -11.847523 8.074847 -11.134262z" fill-rule="evenodd"/><path fill="#ffffff" d="m15.1838875 21.941202l0 0c0 -2.624525 2.150053 -4.7633495 4.8022766 -4.7772007l0 0c1.2736435 -0.0066509247 2.495121 0.48764038 3.3957233 1.3741322c0.90060234 0.8864937 1.4065552 2.0925732 1.4065552 3.3529148l0 0c0 2.624525 -2.150053 4.7633495 -4.8022785 4.777199l0 0c-2.6522236 0.013849258 -4.8022766 -2.10252 -4.8022766 -4.727045z" fill-rule="evenodd"/><path stroke="#b7b7b7" stroke-width="2.0" stroke-linejoin="round" stroke-linecap="butt" d="m15.1838875 21.941202l0 0c0 -2.624525 2.150053 -4.7633495 4.8022766 -4.7772007l0 0c1.2736435 -0.0066509247 2.495121 0.48764038 3.3957233 1.3741322c0.90060234 0.8864937 1.4065552 2.0925732 1.4065552 3.3529148l0 0c0 2.624525 -2.150053 4.7633495 -4.8022785 4.777199l0 0c-2.6522236 0.013849258 -4.8022766 -2.10252 -4.8022766 -4.727045z" fill-rule="evenodd"/><path fill="#000000" fill-opacity="0.0" d="m28.36043 134.05862l0 -21.63446l13.727385 21.63446z" fill-rule="evenodd"/><path stroke="#000000" stroke-width="1.0" stroke-linejoin="round" stroke-linecap="butt" d="m28.36043 134.05862l0 -21.63446l13.727385 21.63446z" fill-rule="evenodd"/><path fill="#0b5394" d="m42.776646 121.10894l-2.6194534 -10.477814l-12.9382515 0l2.6194515 10.477814z" fill-rule="evenodd"/><path stroke="#ffffff" stroke-width="1.0" stroke-linejoin="round" stroke-linecap="butt" d="m42.776646 121.10894l-2.6194534 -10.477814l-12.9382515 0l2.6194515 10.477814z" fill-rule="evenodd"/><path fill="#0b5394" d="m54.976303 121.10894l-2.6194496 -10.477814l-12.9382515 0l2.6194534 10.477814z" fill-rule="evenodd"/><path stroke="#ffffff" stroke-width="1.0" stroke-linejoin="round" stroke-linecap="butt" d="m54.976303 121.10894l-2.6194496 -10.477814l-12.9382515 0l2.6194534 10.477814z" fill-rule="evenodd"/><path fill="#0b5394" d="m67.695045 121.10894l-2.6194534 -10.477814l-12.938248 0l2.6194534 10.477814z" fill-rule="evenodd"/><path stroke="#ffffff" stroke-width="1.0" stroke-linejoin="round" stroke-linecap="butt" d="m67.695045 121.10894l-2.6194534 -10.477814l-12.938248 0l2.6194534 10.477814z" fill-rule="evenodd"/><path fill="#0b5394" d="m79.89471 121.10894l-2.6194534 -10.477814l-12.938248 0l2.6194534 10.477814z" fill-rule="evenodd"/><path stroke="#ffffff" stroke-width="1.0" stroke-linejoin="round" stroke-linecap="butt" d="m79.89471 121.10894l-2.6194534 -10.477814l-12.938248 0l2.6194534 10.477814z" fill-rule="evenodd"/><path fill="#0b5394" d="m45.600845 131.58675l-2.6194534 -10.477806l-12.9382515 0l2.6194534 10.477806z" fill-rule="evenodd"/><path stroke="#ffffff" stroke-width="1.0" stroke-linejoin="round" stroke-linecap="butt" d="m45.600845 131.58675l-2.6194534 -10.477806l-12.9382515 0l2.6194534 10.477806z" fill-rule="evenodd"/><path fill="#0b5394" d="m57.66028 131.58675l-2.6194534 -10.477806l-12.938248 0l2.6194496 10.477806z" fill-rule="evenodd"/><path stroke="#ffffff" stroke-width="1.0" stroke-linejoin="round" stroke-linecap="butt" d="m57.66028 131.58675l-2.6194534 -10.477806l-12.938248 0l2.6194496 10.477806z" fill-rule="evenodd"/><path fill="#0b5394" d="m70.37902 131.58675l-2.6194534 -10.477806l-12.938248 0l2.6194496 10.477806z" fill-rule="evenodd"/><path stroke="#ffffff" stroke-width="1.0" stroke-linejoin="round" stroke-linecap="butt" d="m70.37902 131.58675l-2.6194534 -10.477806l-12.938248 0l2.6194496 10.477806z" fill-rule="evenodd"/><path fill="#0b5394" d="m82.57868 131.58675l-2.6194534 -10.477806l-12.938248 0l2.6194534 10.477806z" fill-rule="evenodd"/><path stroke="#ffffff" stroke-width="1.0" stroke-linejoin="round" stroke-linecap="butt" d="m82.57868 131.58675l-2.6194534 -10.477806l-12.938248 0l2.6194534 10.477806z" fill-rule="evenodd"/><path fill="#0b5394" d="m48.434887 142.06456l-2.6194534 -10.477814l-12.9382515 0l2.6194534 10.477814z" fill-rule="evenodd"/><path stroke="#ffffff" stroke-width="1.0" stroke-linejoin="round" stroke-linecap="butt" d="m48.434887 142.06456l-2.6194534 -10.477814l-12.9382515 0l2.6194534 10.477814z" fill-rule="evenodd"/><path fill="#0b5394" d="m60.634544 142.06456l-2.6194496 -10.477814l-12.9382515 0l2.6194534 10.477814z" fill-rule="evenodd"/><path stroke="#ffffff" stroke-width="1.0" stroke-linejoin="round" stroke-linecap="butt" d="m60.634544 142.06456l-2.6194496 -10.477814l-12.9382515 0l2.6194534 10.477814z" fill-rule="evenodd"/><path fill="#0b5394" d="m73.35329 142.06456l-2.6194534 -10.477814l-12.938248 0l2.6194534 10.477814z" fill-rule="evenodd"/><path stroke="#ffffff" stroke-width="1.0" stroke-linejoin="round" stroke-linecap="butt" d="m73.35329 142.06456l-2.6194534 -10.477814l-12.938248 0l2.6194534 10.477814z" fill-rule="evenodd"/><path fill="#0b5394" d="m85.55295 142.06456l-2.6194534 -10.477814l-12.938248 0l2.6194534 10.477814z" fill-rule="evenodd"/><path stroke="#ffffff" stroke-width="1.0" stroke-linejoin="round" stroke-linecap="butt" d="m85.55295 142.06456l-2.6194534 -10.477814l-12.938248 0l2.6194534 10.477814z" fill-rule="evenodd"/><defs><radialGradient id="p.1" gradientUnits="userSpaceOnUse" gradientTransform="matrix(5.645776962532502 0.0 0.0 5.645776962532502 0.0 0.0)" spreadMethod="pad" cx="40.274639179245554" cy="6.276191624136535" fx="40.274639179245554" fy="6.276191624136535" r="5.645776748657227"><stop offset="0.0" stop-color="#ffe599"/><stop offset="0.49" stop-color="#fff2cc"/><stop offset="1.0" stop-color="#ffffff"/></radialGradient></defs><path fill="url(#p.1)" d="m204.84088 35.43398l0 0c0 -12.446854 10.091843 -22.537022 22.540756 -22.537022l0 0c5.9781647 0 11.711502 2.3744297 15.938705 6.6009407c4.2272186 4.226511 6.6020355 9.958891 6.6020355 15.936081l0 0c0 12.446854 -10.091843 22.537018 -22.540741 22.537018l0 0c-12.448914 0 -22.540756 -10.090164 -22.540756 -22.537018z" fill-rule="evenodd"/><path fill="#ffd966" d="m210.24762 35.43398l0 0c0 -9.46129 7.671158 -17.131182 17.134018 -17.131182l0 0c4.54422 0 8.902313 1.8048859 12.11557 5.0176067c3.2132568 3.212719 5.0184326 7.5701027 5.0184326 12.113575l0 0c0 9.461288 -7.671158 17.13118 -17.134003 17.13118l0 0c-9.46286 0 -17.134018 -7.6698914 -17.134018 -17.13118z" fill-rule="evenodd"/><path fill="#ffd966" d="m218.52905 45.423996l17.705154 0l0 14.085636l-17.705154 0z" fill-rule="evenodd"/><path fill="#b7b7b7" d="m231.6913 70.58459l-8.64473 0l0 0c-1.201477 0 -2.3537598 -0.47729492 -3.2033386 -1.3268738c-0.84957886 -0.84957886 -1.3268738 -2.001854 -1.3268738 -3.2033386l0 -6.8525085c0 -8.010864E-5 7.6293945E-5 -1.487732E-4 1.5258789E-4 -1.487732E-4l17.705002 1.487732E-4l0 0c7.6293945E-5 0 1.5258789E-4 6.484985E-5 1.5258789E-4 1.487732E-4l-1.5258789E-4 6.85236l0 0c0 2.5019684 -2.028244 4.5302124 -4.5302124 4.5302124z" fill-rule="evenodd"/><path fill="#000000" fill-opacity="0.0" d="m19.985739 72.45048l0 16.7874l97.51181 0" fill-rule="evenodd"/><path stroke="#000000" stroke-width="2.0" stroke-linejoin="round" stroke-linecap="butt" d="m19.985739 72.45048l0 16.787392l85.51181 0" fill-rule="evenodd"/><path fill="#000000" stroke="#000000" stroke-width="2.0" stroke-linecap="butt" d="m105.49755 92.541336l9.076195 -3.3034668l-9.076195 -3.3034668z" fill-rule="evenodd"/><path fill="#000000" fill-opacity="0.0" d="m45.887726 110.63113l0 -21.385826l71.59055 0" fill-rule="evenodd"/><path stroke="#000000" stroke-width="2.0" stroke-linejoin="round" stroke-linecap="butt" d="m45.88773 110.631134l0 -21.385826l59.59054 0" fill-rule="evenodd"/><path fill="#000000" stroke="#000000" stroke-width="2.0" stroke-linecap="butt" d="m105.47827 92.54877l9.076202 -3.3034592l-9.076202 -3.3034668z" fill-rule="evenodd"/><path fill="#000000" fill-opacity="0.0" d="m73.731544 73.40796l0 15.842522l43.74803 0" fill-rule="evenodd"/><path stroke="#000000" stroke-width="2.0" stroke-linejoin="round" stroke-linecap="butt" d="m73.73155 73.40796l0 15.842522l31.748024 0" fill-rule="evenodd"/><path fill="#000000" stroke="#000000" stroke-width="2.0" stroke-linecap="butt" d="m105.479576 92.55395l9.076195 -3.3034668l-9.076195 -3.3034668z" fill-rule="evenodd"/><path fill="#000000" fill-opacity="0.0" d="m186.03432 89.23753l41.32283 0l0 -18.645668" fill-rule="evenodd"/><path stroke="#000000" stroke-width="2.0" stroke-linejoin="round" stroke-linecap="butt" d="m186.0343 89.23753l41.322845 0l0 -6.645668" fill-rule="evenodd"/><path fill="#000000" stroke="#000000" stroke-width="2.0" stroke-linecap="butt" d="m230.6606 82.591866l-3.3034515 -9.076195l-3.3034668 9.076195z" fill-rule="evenodd"/><path fill="#274e13" d="m117.490974 50.59989l68.54334 0l0 77.275276l-68.54334 0z" fill-rule="evenodd"/><path fill="#ffd966" d="m146.7917 59.909706l9.721298 17.488045l-4.627136 1.6588058l12.713242 15.291977l-4.656433 2.0797348l15.280579 25.183365l-27.465942 -20.400818l5.6597595 -2.1699524l-17.040909 -13.028923l6.6531982 -3.1925278l-17.99794 -13.676369z" fill-rule="evenodd"/></g></svg>