<svg version="1.1" viewBox="0.0 0.0 250.0 150.0" fill="none" stroke="none" stroke-linecap="square" stroke-miterlimit="10" xmlns:xlink="http://www.w3.org/1999/xlink" xmlns="http://www.w3.org/2000/svg"><clipPath id="p.0"><path d="m0 0l250.0 0l0 150.0l-250.0 0l0 -150.0z" clip-rule="nonzero"/></clipPath><g clip-path="url(#p.0)"><path fill="#000000" fill-opacity="0.0" d="m0 0l250.0 0l0 150.0l-250.0 0z" fill-rule="evenodd"/><path fill="#cfe2f3" d="m143.73103 53.606297l0 0c-0.45429993 2.817215 -1.7025146 5.4216995 -3.214981 6.708271c-1.5124664 1.2865753 -3.0239563 1.029602 -3.8930664 -0.66187286l0 0c-0.79652405 1.5151062 -1.8294678 2.4496498 -2.786377 2.5209503c-0.9569092 0.07130051 -1.7254028 -0.729023 -2.0730286 -2.1588821l0 0c-0.69895935 1.3790588 -1.6348114 2.1979408 -2.4754639 2.1660728c-0.84065247 -0.03186798 -1.4671402 -0.9099808 -1.6571426 -2.3227348l0 0c-1.0104141 1.399559 -2.1988297 1.8126411 -3.0510101 1.0605049c-0.8521881 -0.75213623 -1.2150803 -2.534401 -0.9316559 -4.575596l0 0c-0.69721985 -0.62475204 -1.1040878 -1.8976059 -1.1154709 -3.4897041c-0.011383057 -1.5920982 0.3738327 -3.3472595 1.0561218 -4.8120003l0 0c-0.30867004 -2.2502022 0.14432526 -5.0489807 1.189949 -7.3518867c1.0456238 -2.302906 2.5267792 -3.7639465 3.8907242 -3.8378944c0.53297424 -2.2649002 1.6291962 -4.2029343 2.8661652 -5.0670967c1.2369537 -0.86416435 2.4214935 -0.519516 3.0970306 0.90110016c1.0334625 -2.6213627 2.6377563 -4.3552685 4.119766 -4.4526024c1.4820251 -0.097335815 2.5760803 1.4593487 2.809494 3.9975052c1.2229614 -0.942091 2.445404 -1.0125427 3.3916016 -0.19545746c0.9461975 0.8170891 1.536438 2.4528809 1.637558 4.5383835l0 0c1.0284271 -0.005340576 1.7353821 1.2329979 1.7700043 3.100422c0.034606934 1.8674278 -0.6104889 3.9664154 -1.6151428 5.255245l0 0c0.63082886 1.2351112 0.60035706 3.3898926 -0.075531006 5.340706c-0.67588806 1.9508133 -1.8440247 3.2556 -2.8952637 3.233963z" fill-rule="evenodd"/><path fill="#000000" fill-opacity="0.0" d="m146.74582 44.929165l0 0c-0.29768372 -0.5828552 -0.72073364 -0.9137573 -1.212326 -0.94828033m1.0577087 -7.4075165c-0.21508789 0.0011177063 -0.43859863 0.057048798 -0.66474915 0.16635895m-4.364151 -4.5090904c0.043014526 0.46768188 0.055786133 0.959774 0.038116455 1.4678955m-6.967636 -1.0127716l0 0c-0.18841553 0.4779129 -0.35411072 0.9763069 -0.494339 1.4868622m-5.468628 2.6789818c-0.5674286 2.411335 -0.3995819 4.777912 0.43144226 6.083214m-5.512039 5.1063194c0.3640976 -0.7816467 0.7984543 -1.4493179 1.2690048 -1.9506607m-1.2098694 10.252541l0 0c0.047035217 -0.3387375 0.11116028 -0.6787796 0.1914978 -1.015419m3.7911148 4.5303955l0 0c0.25204468 -0.3491211 0.48594666 -0.7502899 0.69441223 -1.1910095m3.438202 1.3478508l0 0c0.16786194 -0.33120728 0.3184967 -0.687912 0.4484253 -1.0619011m4.4110413 0.69981766l0 0c-0.18389893 -0.3579178 -0.33476257 -0.7724304 -0.44926453 -1.234436m7.557251 -4.8120193l0 0c0.06260681 -0.38828278 0.109191895 -0.7753067 0.13931274 -1.1574402" fill-rule="evenodd"/><path fill="#cccccc" d="m118.58268 91.36089l5.6692886 -22.67717l17.007874 0l5.6692963 22.67717z" fill-rule="evenodd"/><path fill="#cccccc" d="m144.58289 57.287357l-4.968506 19.874012l-13.716537 0l-4.968498 -19.874012z" fill-rule="evenodd"/><path fill="#fff2cc" d="m54.31841 89.867424l18.07874 -42.488186l16.18898 3.6535416l-1.8897629 46.141735z" fill-rule="evenodd"/><path fill="#ffffff" d="m21.6916 107.61811l3.661417 -63.77953l7.322836 0l3.661415 63.77953z" fill-rule="evenodd"/><path stroke="#b7b7b7" stroke-width="2.0" stroke-linejoin="round" stroke-linecap="butt" d="m21.6916 107.61811l3.661417 -63.77953l7.322836 0l3.661415 63.77953z" fill-rule="evenodd"/><path fill="#ffffff" d="m28.74406 45.266857l0 0c-0.44356728 -2.5744324 6.53656 -5.9446335 15.590549 -7.527561l0 0c9.053993 -1.5829277 16.753284 -0.7791519 17.196854 1.7952766l0 0c0.44356537 2.5744286 -6.53656 5.9446335 -15.590553 7.5275574l0 0c-9.053989 1.5829277 -16.753283 0.77915573 -17.19685 -1.7952728z" fill-rule="evenodd"/><path stroke="#b7b7b7" stroke-width="2.0" stroke-linejoin="round" stroke-linecap="butt" d="m28.74406 45.266857l0 0c-0.44356728 -2.5744324 6.53656 -5.9446335 15.590549 -7.527561l0 0c9.053993 -1.5829277 16.753284 -0.7791519 17.196854 1.7952766l0 0c0.44356537 2.5744286 -6.53656 5.9446335 -15.590553 7.5275574l0 0c-9.053989 1.5829277 -16.753283 0.77915573 -17.19685 -1.7952728z" fill-rule="evenodd"/><path fill="#ffffff" d="m28.809544 45.141926l0 0c-1.991705 1.6785965 -8.372528 -2.6645927 -14.251968 -9.700787l0 0c-5.8794413 -7.0361958 -9.031075 -14.100931 -7.0393705 -15.779528l0 0c1.991704 -1.6785984 8.372528 2.6645927 14.251969 9.700787l0 0c5.8794403 7.0361958 9.031073 14.100931 7.0393696 15.779528z" fill-rule="evenodd"/><path stroke="#b7b7b7" stroke-width="2.0" stroke-linejoin="round" stroke-linecap="butt" d="m28.809544 45.141926l0 0c-1.991705 1.6785965 -8.372528 -2.6645927 -14.251968 -9.700787l0 0c-5.8794413 -7.0361958 -9.031075 -14.100931 -7.0393705 -15.779528l0 0c1.991704 -1.6785984 8.372528 2.6645927 14.251969 9.700787l0 0c5.8794403 7.0361958 9.031073 14.100931 7.0393696 15.779528z" fill-rule="evenodd"/><path fill="#ffffff" d="m27.974247 45.460056l0 0c2.4526653 0.89583206 1.8886147 8.609226 -1.2598438 17.228348l0 0c-3.1484566 8.619122 -7.689066 14.880085 -10.141731 13.984249l0 0c-2.4526663 -0.89582825 -1.8886156 -8.609222 1.2598419 -17.228344l0 0c3.1484585 -8.619122 7.689066 -14.880085 10.141733 -13.984253z" fill-rule="evenodd"/><path stroke="#b7b7b7" stroke-width="2.0" stroke-linejoin="round" stroke-linecap="butt" d="m27.974247 45.460056l0 0c2.4526653 0.89583206 1.8886147 8.609226 -1.2598438 17.228348l0 0c-3.1484566 8.619122 -7.689066 14.880085 -10.141731 13.984249l0 0c-2.4526663 -0.89582825 -1.8886156 -8.609222 1.2598419 -17.228344l0 0c3.1484585 -8.619122 7.689066 -14.880085 10.141733 -13.984253z" fill-rule="evenodd"/><path fill="#ffffff" d="m22.983475 44.18019l0 0c0 -3.2963142 2.7003937 -5.982605 6.031496 -6.0l0 0c1.5996532 -0.008354187 3.1337872 0.6124573 4.2649136 1.7258606c1.1311226 1.1134071 1.7665825 2.6282005 1.7665825 4.2111473l0 0c0 3.2963142 -2.7003937 5.982605 -6.031496 6.0l0 0c-3.3311024 0.01739502 -6.031496 -2.6406937 -6.031496 -5.937008z" fill-rule="evenodd"/><path stroke="#b7b7b7" stroke-width="2.0" stroke-linejoin="round" stroke-linecap="butt" d="m22.983475 44.18019l0 0c0 -3.2963142 2.7003937 -5.982605 6.031496 -6.0l0 0c1.5996532 -0.008354187 3.1337872 0.6124573 4.2649136 1.7258606c1.1311226 1.1134071 1.7665825 2.6282005 1.7665825 4.2111473l0 0c0 3.2963142 -2.7003937 5.982605 -6.031496 6.0l0 0c-3.3311024 0.01739502 -6.031496 -2.6406937 -6.031496 -5.937008z" fill-rule="evenodd"/><path fill="#ffd966" d="m107.68898 29.17979l-9.151184 3.2543755l0 -6.508751zm-6.64357 -16.035696l-4.1684875 8.772905l-4.602318 -4.6023216zm-16.0336 -6.64147l3.2543793 9.151179l-6.508751 0zm-16.035698 6.64147l8.772911 4.1705837l-4.6023254 4.6023216zm-6.641468 16.035696l9.15118 -3.2543755l0 6.508751zm6.641468 16.033596l4.1705856 -8.770805l4.6023254 4.6023216zm16.035698 6.64357l-3.2543716 -9.15118l6.508751 0zm16.0336 -6.64357l-8.770805 -4.1684837l4.602318 -4.6023216zm-27.372185 -16.033596l0 0c0 -6.262127 5.076462 -11.338583 11.338585 -11.338583c6.2621307 0 11.338585 5.076456 11.338585 11.338583c0 6.262127 -5.076454 11.338581 -11.338585 11.338581c-6.262123 0 -11.338585 -5.076454 -11.338585 -11.338581z" fill-rule="evenodd"/><path fill="#000000" fill-opacity="0.0" d="m51.833874 107.844l0 -18.522385l11.750221 18.522385z" fill-rule="evenodd"/><path stroke="#666666" stroke-width="1.0" stroke-linejoin="round" stroke-linecap="butt" d="m51.833874 107.844l0 -18.522385l11.750221 18.522385z" fill-rule="evenodd"/><path fill="#0b5394" d="m64.17371 96.7571l-2.242653 -8.970596l-11.074265 0l2.242649 8.970596z" fill-rule="evenodd"/><path stroke="#ffffff" stroke-width="1.0" stroke-linejoin="round" stroke-linecap="butt" d="m64.17371 96.7571l-2.242653 -8.970596l-11.074265 0l2.242649 8.970596z" fill-rule="evenodd"/><path fill="#0b5394" d="m74.61625 96.7571l-2.242653 -8.970596l-11.074265 0l2.242649 8.970596z" fill-rule="evenodd"/><path stroke="#ffffff" stroke-width="1.0" stroke-linejoin="round" stroke-linecap="butt" d="m74.61625 96.7571l-2.242653 -8.970596l-11.074265 0l2.242649 8.970596z" fill-rule="evenodd"/><path fill="#0b5394" d="m85.5031 96.7571l-2.2426453 -8.970596l-11.074272 0l2.242653 8.970596z" fill-rule="evenodd"/><path stroke="#ffffff" stroke-width="1.0" stroke-linejoin="round" stroke-linecap="butt" d="m85.5031 96.7571l-2.2426453 -8.970596l-11.074272 0l2.242653 8.970596z" fill-rule="evenodd"/><path fill="#0b5394" d="m95.94563 96.7571l-2.2426453 -8.970596l-11.074272 0l2.242653 8.970596z" fill-rule="evenodd"/><path stroke="#ffffff" stroke-width="1.0" stroke-linejoin="round" stroke-linecap="butt" d="m95.94563 96.7571l-2.2426453 -8.970596l-11.074272 0l2.242653 8.970596z" fill-rule="evenodd"/><path fill="#0b5394" d="m66.59114 105.7277l-2.242653 -8.970596l-11.074265 0l2.242649 8.970596z" fill-rule="evenodd"/><path stroke="#ffffff" stroke-width="1.0" stroke-linejoin="round" stroke-linecap="butt" d="m66.59114 105.7277l-2.242653 -8.970596l-11.074265 0l2.242649 8.970596z" fill-rule="evenodd"/><path fill="#0b5394" d="m76.91364 105.7277l-2.2426453 -8.970596l-11.074268 0l2.242649 8.970596z" fill-rule="evenodd"/><path stroke="#ffffff" stroke-width="1.0" stroke-linejoin="round" stroke-linecap="butt" d="m76.91364 105.7277l-2.2426453 -8.970596l-11.074268 0l2.242649 8.970596z" fill-rule="evenodd"/><path fill="#0b5394" d="m87.8005 105.7277l-2.242653 -8.970596l-11.074265 0l2.242653 8.970596z" fill-rule="evenodd"/><path stroke="#ffffff" stroke-width="1.0" stroke-linejoin="round" stroke-linecap="butt" d="m87.8005 105.7277l-2.242653 -8.970596l-11.074265 0l2.242653 8.970596z" fill-rule="evenodd"/><path fill="#0b5394" d="m98.243034 105.7277l-2.242653 -8.970596l-11.074265 0l2.242653 8.970596z" fill-rule="evenodd"/><path stroke="#ffffff" stroke-width="1.0" stroke-linejoin="round" stroke-linecap="butt" d="m98.243034 105.7277l-2.242653 -8.970596l-11.074265 0l2.242653 8.970596z" fill-rule="evenodd"/><path fill="#0b5394" d="m69.01699 114.6983l-2.2426453 -8.970604l-11.074268 0l2.242649 8.970604z" fill-rule="evenodd"/><path stroke="#ffffff" stroke-width="1.0" stroke-linejoin="round" stroke-linecap="butt" d="m69.01699 114.6983l-2.2426453 -8.970604l-11.074268 0l2.242649 8.970604z" fill-rule="evenodd"/><path fill="#0b5394" d="m79.459526 114.6983l-2.2426453 -8.970604l-11.074272 0l2.242653 8.970604z" fill-rule="evenodd"/><path stroke="#ffffff" stroke-width="1.0" stroke-linejoin="round" stroke-linecap="butt" d="m79.459526 114.6983l-2.2426453 -8.970604l-11.074272 0l2.242653 8.970604z" fill-rule="evenodd"/><path fill="#0b5394" d="m90.34638 114.6983l-2.242653 -8.970604l-11.074265 0l2.2426453 8.970604z" fill-rule="evenodd"/><path stroke="#ffffff" stroke-width="1.0" stroke-linejoin="round" stroke-linecap="butt" d="m90.34638 114.6983l-2.242653 -8.970604l-11.074265 0l2.2426453 8.970604z" fill-rule="evenodd"/><path fill="#0b5394" d="m100.78892 114.6983l-2.242653 -8.970604l-11.074265 0l2.2426453 8.970604z" fill-rule="evenodd"/><path stroke="#ffffff" stroke-width="1.0" stroke-linejoin="round" stroke-linecap="butt" d="m100.78892 114.6983l-2.242653 -8.970604l-11.074265 0l2.2426453 8.970604z" fill-rule="evenodd"/><defs><radialGradient id="p.1" gradientUnits="userSpaceOnUse" gradientTransform="matrix(5.135071434840228 0.0 0.0 5.135071434840228 0.0 0.0)" spreadMethod="pad" cx="44.29193636425516" cy="10.876008654116626" fx="44.29193636425516" fy="10.876008654116626" r="5.135071277618408"><stop offset="0.0" stop-color="#ffe599"/><stop offset="0.49" stop-color="#fff2cc"/><stop offset="1.0" stop-color="#ffffff"/></radialGradient></defs><path fill="url(#p.1)" d="m208.79659 55.849083l0 0c0 -10.297722 8.347946 -18.645672 18.645676 -18.645672l0 0c4.9451294 0 9.687729 1.9644508 13.184479 5.4611893c3.4967346 3.4967422 5.4611816 8.239342 5.4611816 13.184483l0 0c0 10.297714 -8.347946 18.645668 -18.64566 18.645668l0 0c-10.2977295 0 -18.645676 -8.347954 -18.645676 -18.645668z" fill-rule="evenodd"/><path fill="#ffd966" d="m213.26903 55.849083l0 0c0 -7.8276596 6.345566 -14.173229 14.173233 -14.173229l0 0c3.7589722 0 7.363983 1.4932442 10.021988 4.1512413c2.6579895 2.6579971 4.15123 6.263012 4.15123 10.021988l0 0c0 7.827656 -6.345566 14.173225 -14.173218 14.173225l0 0c-7.827667 0 -14.173233 -6.3455696 -14.173233 -14.173225z" fill-rule="evenodd"/><path fill="#ffd966" d="m220.11942 64.114174l14.645676 0l0 11.653542l-14.645676 0z" fill-rule="evenodd"/><path fill="#b7b7b7" d="m231.00659 84.93041l-7.1496735 0l0 0c-0.99401855 0 -1.9473419 -0.39487457 -2.650238 -1.0977631c-0.70288086 -0.7028885 -1.0977631 -1.6562042 -1.0977631 -2.650238l0 -5.669319c0 -6.866455E-5 6.1035156E-5 -1.2207031E-4 1.2207031E-4 -1.2207031E-4l14.645554 1.2207031E-4l0 0c6.1035156E-5 0 1.2207031E-4 5.340576E-5 1.2207031E-4 1.2207031E-4l-1.2207031E-4 5.669197l0 0c0 2.0699615 -1.6780396 3.748001 -3.748001 3.748001z" fill-rule="evenodd"/><path fill="#660000" d="m110.63123 87.78609l45.354332 0l0 19.874016l-45.354332 0z" fill-rule="evenodd"/><path fill="#cfe2f3" d="m121.450134 93.13517l0 0l0 0c0.82697296 0 1.6200714 0.3285141 2.204834 0.9132767c0.5847626 0.58475494 0.9132767 1.377861 0.9132767 2.204834l0 6.2992096c0 3.0517578E-5 -3.0517578E-5 5.340576E-5 -5.340576E-5 5.340576E-5l-6.236168 -5.340576E-5l0 0c-3.0517578E-5 0 -5.340576E-5 -2.2888184E-5 -5.340576E-5 -4.5776367E-5l5.340576E-5 -6.299164l0 0c0 -1.722084 1.3960266 -3.1181107 3.1181107 -3.1181107z" fill-rule="evenodd"/><path fill="#cfe2f3" d="m133.69948 93.13517l0 0l0 0c0.82696533 0 1.6200714 0.3285141 2.204834 0.9132767c0.5847626 0.58475494 0.91326904 1.377861 0.91326904 2.204834l0 6.2992096c0 3.0517578E-5 -1.5258789E-5 5.340576E-5 -4.5776367E-5 5.340576E-5l-6.2361755 -5.340576E-5l0 0c-3.0517578E-5 0 -4.5776367E-5 -2.2888184E-5 -4.5776367E-5 -4.5776367E-5l4.5776367E-5 -6.299164l0 0c0 -1.722084 1.3960266 -3.1181107 3.1181183 -3.1181107z" fill-rule="evenodd"/><path fill="#cfe2f3" d="m145.94882 93.13517l0 0l0 0c0.82696533 0 1.6200714 0.3285141 2.204834 0.9132767c0.5847626 0.58475494 0.91326904 1.377861 0.91326904 2.204834l0 6.2992096c0 3.0517578E-5 -1.5258789E-5 5.340576E-5 -4.5776367E-5 5.340576E-5l-6.2361755 -5.340576E-5l0 0c-3.0517578E-5 0 -4.5776367E-5 -2.2888184E-5 -4.5776367E-5 -4.5776367E-5l4.5776367E-5 -6.299164l0 0c0 -1.722084 1.3960266 -3.1181107 3.1181183 -3.1181107z" fill-rule="evenodd"/><path fill="#274e13" d="m167.32939 102.55249l36.37796 0l0 40.944885l-36.37796 0z" fill-rule="evenodd"/><path fill="#000000" fill-opacity="0.0" d="m29.014435 107.61811l0 15.401573l138.3307 0" fill-rule="evenodd"/><path stroke="#000000" stroke-width="1.0" stroke-linejoin="round" stroke-linecap="butt" d="m29.014435 107.61811l0 15.401573l138.3307 0" fill-rule="evenodd"/><path fill="#000000" fill-opacity="0.0" d="m95.251785 114.6983l0 8.314957l72.06299 0" fill-rule="evenodd"/><path stroke="#000000" stroke-width="1.0" stroke-linejoin="round" stroke-linecap="butt" d="m95.251785 114.6983l0 8.314957l72.06299 0" fill-rule="evenodd"/><path fill="#000000" fill-opacity="0.0" d="m133.3084 107.6601l0 15.370079l34.015747 0" fill-rule="evenodd"/><path stroke="#000000" stroke-width="1.0" stroke-linejoin="round" stroke-linecap="butt" d="m133.3084 107.6601l0 15.370079l34.015747 0" fill-rule="evenodd"/><path fill="#000000" fill-opacity="0.0" d="m203.70735 123.02493l23.716537 0l0 -38.110237" fill-rule="evenodd"/><path stroke="#000000" stroke-width="1.0" stroke-linejoin="round" stroke-linecap="butt" d="m203.70735 123.02493l23.716537 0l0 -38.110237" fill-rule="evenodd"/><path fill="#ffd966" d="m182.88014 107.48537l5.1593933 9.266174l-2.4557648 0.87892914l6.747284 8.10257l-2.4712982 1.1019592l8.109848 13.34359l-14.576981 -10.809525l3.0037994 -1.149765l-9.044113 -6.9034653l3.5310516 -1.6915894l-9.552032 -7.2465286z" fill-rule="evenodd"/></g></svg>