<svg version="1.1" viewBox="0.0 0.0 219.98162729658793 150.51443569553805" fill="none" stroke="none" stroke-linecap="square" stroke-miterlimit="10" xmlns:xlink="http://www.w3.org/1999/xlink" xmlns="http://www.w3.org/2000/svg"><clipPath id="p.0"><path d="m0 0l219.98163 0l0 150.51443l-219.98163 0l0 -150.51443z" clip-rule="nonzero"/></clipPath><g clip-path="url(#p.0)"><path fill="#000000" fill-opacity="0.0" d="m0 0l219.98163 0l0 150.51443l-219.98163 0z" fill-rule="evenodd"/><path fill="#000000" d="m0 16.559866l0 0c0 -9.15011 7.4176297 -16.56774 16.56774 -16.56774l186.99051 0c4.394043 0 8.6081085 1.7455246 11.715164 4.8525786c3.1070557 3.1070538 4.852585 7.321123 4.852585 11.715161l0 116.88027c0 9.150101 -7.417633 16.567734 -16.567749 16.567734l-186.99051 0c-9.15011 0 -16.56774 -7.417633 -16.56774 -16.567734z" fill-rule="evenodd"/><path fill="#0076e4" d="m14.085301 11.317585l191.81104 0l0 62.45669l-191.81104 0z" fill-rule="evenodd"/><path fill="#000000" fill-opacity="0.0" d="m14.084304 30.77221c1.2036343 0 5.757983 0.6361866 7.2218084 0c1.4638252 -0.6361847 1.1708546 -2.4742603 1.5611401 -3.817112c0.3902855 -1.3428535 0.29297066 -5.9007607 0.780571 -4.24c0.48760033 1.660759 1.5273361 12.932554 2.145031 14.204557c0.61769485 1.2719994 1.1056366 -5.229706 1.5611401 -6.5725574c0.45550346 -1.3428535 0.32608986 -1.5906506 1.1718788 -1.4845581c0.84578896 0.10609436 1.1384163 1.8028355 3.9028492 2.1211128c2.7644348 0.31827927 10.569794 -0.17620277 12.68375 -0.21144295" fill-rule="evenodd"/><path stroke="#ffffff" stroke-width="1.0" stroke-linejoin="round" stroke-linecap="butt" d="m14.084304 30.77221c1.2036343 0 5.757983 0.6361866 7.2218084 0c1.4638252 -0.6361847 1.1708546 -2.4742603 1.5611401 -3.817112c0.3902855 -1.3428535 0.29297066 -5.9007607 0.780571 -4.24c0.48760033 1.660759 1.5273361 12.932554 2.145031 14.204557c0.61769485 1.2719994 1.1056366 -5.229706 1.5611401 -6.5725574c0.45550346 -1.3428535 0.32608986 -1.5906506 1.1718788 -1.4845581c0.84578896 0.10609436 1.1384163 1.8028355 3.9028492 2.1211128c2.7644348 0.31827927 10.569794 -0.17620277 12.68375 -0.21144295" fill-rule="evenodd"/><path fill="#000000" fill-opacity="0.0" d="m45.111336 30.77221c1.2036324 0 5.757984 0.6361866 7.2218094 0c1.4638252 -0.6361847 1.1708527 -2.4742603 1.5611382 -3.817112c0.3902855 -1.3428535 0.29297256 -5.9007607 0.780571 -4.24c0.48759842 1.660759 1.5273361 12.932554 2.145031 14.204557c0.61769485 1.2719994 1.1056366 -5.229706 1.5611382 -6.5725574c0.45550537 -1.3428535 0.32609177 -1.5906506 1.1718826 -1.4845581c0.84578705 0.10609436 1.1384163 1.8028355 3.9028473 2.1211128c2.764431 0.31827927 10.56979 -0.17620277 12.68375 -0.21144295" fill-rule="evenodd"/><path stroke="#ffffff" stroke-width="1.0" stroke-linejoin="round" stroke-linecap="butt" d="m45.111336 30.77221c1.2036324 0 5.757984 0.6361866 7.2218094 0c1.4638252 -0.6361847 1.1708527 -2.4742603 1.5611382 -3.817112c0.3902855 -1.3428535 0.29297256 -5.9007607 0.780571 -4.24c0.48759842 1.660759 1.5273361 12.932554 2.145031 14.204557c0.61769485 1.2719994 1.1056366 -5.229706 1.5611382 -6.5725574c0.45550537 -1.3428535 0.32609177 -1.5906506 1.1718826 -1.4845581c0.84578705 0.10609436 1.1384163 1.8028355 3.9028473 2.1211128c2.764431 0.31827927 10.56979 -0.17620277 12.68375 -0.21144295" fill-rule="evenodd"/><path fill="#000000" fill-opacity="0.0" d="m76.13837 30.77221c1.2036362 0 5.757988 0.6361866 7.2218094 0c1.4638214 -0.6361847 1.1708527 -2.4742603 1.561142 -3.817112c0.39028168 -1.3428535 0.29296875 -5.9007607 0.780571 -4.24c0.4875946 1.660759 1.5273361 12.932554 2.1450272 14.204557c0.61769867 1.2719994 1.1056366 -5.229706 1.561142 -6.5725574c0.45550537 -1.3428535 0.32608795 -1.5906506 1.171875 -1.4845581c0.8457947 0.10609436 1.1384201 1.8028355 3.902855 2.1211128c2.7644348 0.31827927 10.569786 -0.17620277 12.683746 -0.21144295" fill-rule="evenodd"/><path stroke="#ffffff" stroke-width="1.0" stroke-linejoin="round" stroke-linecap="butt" d="m76.13837 30.77221c1.2036362 0 5.757988 0.6361866 7.2218094 0c1.4638214 -0.6361847 1.1708527 -2.4742603 1.561142 -3.817112c0.39028168 -1.3428535 0.29296875 -5.9007607 0.780571 -4.24c0.4875946 1.660759 1.5273361 12.932554 2.1450272 14.204557c0.61769867 1.2719994 1.1056366 -5.229706 1.561142 -6.5725574c0.45550537 -1.3428535 0.32608795 -1.5906506 1.171875 -1.4845581c0.8457947 0.10609436 1.1384201 1.8028355 3.902855 2.1211128c2.7644348 0.31827927 10.569786 -0.17620277 12.683746 -0.21144295" fill-rule="evenodd"/><path fill="#000000" fill-opacity="0.0" d="m107.1654 30.77221c1.2036362 0 5.757988 0.6361866 7.2218094 0c1.4638214 -0.6361847 1.1708527 -2.4742603 1.561142 -3.817112c0.39028168 -1.3428535 0.29296875 -5.9007607 0.780571 -4.24c0.4875946 1.660759 1.5273361 12.932554 2.1450272 14.204557c0.61769867 1.2719994 1.1056366 -5.229706 1.561142 -6.5725574c0.45550537 -1.3428535 0.32608795 -1.5906506 1.171875 -1.4845581c0.8457947 0.10609436 1.1384201 1.8028355 3.902855 2.1211128c2.7644272 0.31827927 10.569786 -0.17620277 12.683754 -0.21144295" fill-rule="evenodd"/><path stroke="#ffffff" stroke-width="1.0" stroke-linejoin="round" stroke-linecap="butt" d="m107.1654 30.77221c1.2036362 0 5.757988 0.6361866 7.2218094 0c1.4638214 -0.6361847 1.1708527 -2.4742603 1.561142 -3.817112c0.39028168 -1.3428535 0.29296875 -5.9007607 0.780571 -4.24c0.4875946 1.660759 1.5273361 12.932554 2.1450272 14.204557c0.61769867 1.2719994 1.1056366 -5.229706 1.561142 -6.5725574c0.45550537 -1.3428535 0.32608795 -1.5906506 1.171875 -1.4845581c0.8457947 0.10609436 1.1384201 1.8028355 3.902855 2.1211128c2.7644272 0.31827927 10.569786 -0.17620277 12.683754 -0.21144295" fill-rule="evenodd"/><path fill="#000000" fill-opacity="0.0" d="m14.407114 57.688713c1.1973696 0 5.72801 0.3644066 7.1842136 0c1.4562054 -0.3644066 1.1647606 -1.4172554 1.5530128 -2.1864433c0.38825417 -0.7691841 0.29144478 -3.3799553 0.7765064 -2.4286728c0.48506165 0.9512825 1.5193863 7.4077682 2.1338654 8.136372c0.61447906 0.72859955 1.0998802 -2.995575 1.5530128 -3.764759c0.45313263 -0.7691879 0.32439423 -0.9111252 1.1657791 -0.85035706c0.8413849 0.060771942 1.1324902 1.0326653 3.8825321 1.2149734c2.750042 0.18231201 10.514767 -0.10092926 12.617722 -0.12111282" fill-rule="evenodd"/><path stroke="#ffffff" stroke-width="1.0" stroke-linejoin="round" stroke-linecap="butt" d="m14.407114 57.688713c1.1973696 0 5.72801 0.3644066 7.1842136 0c1.4562054 -0.3644066 1.1647606 -1.4172554 1.5530128 -2.1864433c0.38825417 -0.7691841 0.29144478 -3.3799553 0.7765064 -2.4286728c0.48506165 0.9512825 1.5193863 7.4077682 2.1338654 8.136372c0.61447906 0.72859955 1.0998802 -2.995575 1.5530128 -3.764759c0.45313263 -0.7691879 0.32439423 -0.9111252 1.1657791 -0.85035706c0.8413849 0.060771942 1.1324902 1.0326653 3.8825321 1.2149734c2.750042 0.18231201 10.514767 -0.10092926 12.617722 -0.12111282" fill-rule="evenodd"/><path fill="#000000" fill-opacity="0.0" d="m45.27288 57.688713c1.1973686 0 5.7280083 0.3644066 7.1842155 0c1.4562035 -0.3644066 1.1647568 -1.4172554 1.5530128 -2.1864433c0.38825226 -0.7691841 0.29144287 -3.3799553 0.7765045 -2.4286728c0.48506165 0.9512825 1.5193863 7.4077682 2.1338654 8.136372c0.61447906 0.72859955 1.0998802 -2.995575 1.5530128 -3.764759c0.45313263 -0.7691879 0.32439423 -0.9111252 1.1657791 -0.85035706c0.8413849 0.060771942 1.1324883 1.0326653 3.8825302 1.2149734c2.750042 0.18231201 10.514767 -0.10092926 12.617725 -0.12111282" fill-rule="evenodd"/><path stroke="#ffffff" stroke-width="1.0" stroke-linejoin="round" stroke-linecap="butt" d="m45.27288 57.688713c1.1973686 0 5.7280083 0.3644066 7.1842155 0c1.4562035 -0.3644066 1.1647568 -1.4172554 1.5530128 -2.1864433c0.38825226 -0.7691841 0.29144287 -3.3799553 0.7765045 -2.4286728c0.48506165 0.9512825 1.5193863 7.4077682 2.1338654 8.136372c0.61447906 0.72859955 1.0998802 -2.995575 1.5530128 -3.764759c0.45313263 -0.7691879 0.32439423 -0.9111252 1.1657791 -0.85035706c0.8413849 0.060771942 1.1324883 1.0326653 3.8825302 1.2149734c2.750042 0.18231201 10.514767 -0.10092926 12.617725 -0.12111282" fill-rule="evenodd"/><path fill="#000000" fill-opacity="0.0" d="m76.13865 57.688713c1.1973648 0 5.7280045 0.3644066 7.1842117 0c1.4562073 -0.3644066 1.1647644 -1.4172554 1.5530167 -2.1864433c0.38825226 -0.7691841 0.29144287 -3.3799553 0.7765045 -2.4286728c0.48506165 0.9512825 1.5193863 7.4077682 2.1338654 8.136372c0.61447906 0.72859955 1.0998764 -2.995575 1.553009 -3.764759c0.45313263 -0.7691879 0.32439423 -0.9111252 1.1657791 -0.85035706c0.8413849 0.060771942 1.1324921 1.0326653 3.8825378 1.2149734c2.7500381 0.18231201 10.514763 -0.10092926 12.617714 -0.12111282" fill-rule="evenodd"/><path stroke="#ffffff" stroke-width="1.0" stroke-linejoin="round" stroke-linecap="butt" d="m76.13865 57.688713c1.1973648 0 5.7280045 0.3644066 7.1842117 0c1.4562073 -0.3644066 1.1647644 -1.4172554 1.5530167 -2.1864433c0.38825226 -0.7691841 0.29144287 -3.3799553 0.7765045 -2.4286728c0.48506165 0.9512825 1.5193863 7.4077682 2.1338654 8.136372c0.61447906 0.72859955 1.0998764 -2.995575 1.553009 -3.764759c0.45313263 -0.7691879 0.32439423 -0.9111252 1.1657791 -0.85035706c0.8413849 0.060771942 1.1324921 1.0326653 3.8825378 1.2149734c2.7500381 0.18231201 10.514763 -0.10092926 12.617714 -0.12111282" fill-rule="evenodd"/><path fill="#000000" fill-opacity="0.0" d="m107.00442 57.688713c1.1973648 0 5.7280045 0.3644066 7.1842117 0c1.4562073 -0.3644066 1.1647568 -1.4172554 1.553009 -2.1864433c0.3882599 -0.7691841 0.2914505 -3.3799553 0.77651215 -2.4286728c0.48506165 0.9512825 1.5193787 7.4077682 2.1338654 8.136372c0.61447906 0.72859955 1.0998764 -2.995575 1.553009 -3.764759c0.45313263 -0.7691879 0.32439423 -0.9111252 1.1657791 -0.85035706c0.8413849 0.060771942 1.1324921 1.0326653 3.8825302 1.2149734c2.7500381 0.18231201 10.514763 -0.10092926 12.617729 -0.12111282" fill-rule="evenodd"/><path stroke="#ffffff" stroke-width="1.0" stroke-linejoin="round" stroke-linecap="butt" d="m107.00442 57.688713c1.1973648 0 5.7280045 0.3644066 7.1842117 0c1.4562073 -0.3644066 1.1647568 -1.4172554 1.553009 -2.1864433c0.3882599 -0.7691841 0.2914505 -3.3799553 0.77651215 -2.4286728c0.48506165 0.9512825 1.5193787 7.4077682 2.1338654 8.136372c0.61447906 0.72859955 1.0998764 -2.995575 1.553009 -3.764759c0.45313263 -0.7691879 0.32439423 -0.9111252 1.1657791 -0.85035706c0.8413849 0.060771942 1.1324921 1.0326653 3.8825302 1.2149734c2.7500381 0.18231201 10.514763 -0.10092926 12.617729 -0.12111282" fill-rule="evenodd"/><path fill="#000000" fill-opacity="0.0" d="m138.19475 11.192358l0 62.708656" fill-rule="evenodd"/><path stroke="#ffffff" stroke-width="1.0" stroke-linejoin="round" stroke-linecap="butt" d="m138.19475 11.192358l0 62.708656" fill-rule="evenodd"/><g filter="url(#shadowFilter-p.1)"><use xlink:href="#p.1" transform="matrix(1.0 0.0 0.0 1.0 0.0 2.0)"/></g><defs><filter id="shadowFilter-p.1" filterUnits="userSpaceOnUse"><feGaussianBlur in="SourceAlpha" stdDeviation="2.0" result="blur"/><feComponentTransfer in="blur" color-interpolation-filters="sRGB"><feFuncR type="linear" slope="0" intercept="0.0"/><feFuncG type="linear" slope="0" intercept="0.0"/><feFuncB type="linear" slope="0" intercept="0.0"/><feFuncA type="linear" slope="0.5" intercept="0"/></feComponentTransfer></filter></defs><g id="p.1"><path fill="#efefef" d="m14.084023 73.90026l191.81102 0l0 62.456688l-191.81102 0z" fill-rule="evenodd"/></g><path fill="#000000" fill-opacity="0.0" d="m28.729483 88.67474l162.51968 0.37795258" fill-rule="evenodd"/><path stroke="#700090" stroke-width="2.0" stroke-linejoin="round" stroke-linecap="butt" d="m28.729483 88.67474l162.51968 0.37795258" fill-rule="evenodd"/><path fill="#000000" fill-opacity="0.0" d="m28.729483 104.67474l162.51968 0.37795258" fill-rule="evenodd"/><path stroke="#700090" stroke-width="2.0" stroke-linejoin="round" stroke-linecap="butt" d="m28.729483 104.67474l162.51968 0.37795258" fill-rule="evenodd"/><path fill="#000000" fill-opacity="0.0" d="m28.802973 120.67474l162.51968 0.37795258" fill-rule="evenodd"/><path stroke="#700090" stroke-width="2.0" stroke-linejoin="round" stroke-linecap="butt" d="m28.802973 120.67474l162.51968 0.37795258" fill-rule="evenodd"/></g></svg>